<svg width="80" height="80" viewBox="0 0 80 80" fill="none" xmlns="http://www.w3.org/2000/svg">
<path d="M75.4722 37.9547C75.7491 38.1293 75.6193 38.4509 75.5753 38.556C75.3641 39.0612 75.7091 39.5767 75.4185 40.0778C75.561 40.0487 75.5214 39.9325 75.6389 39.9468C75.7717 40.1683 75.6239 40.4327 75.5971 40.6425C75.5488 41.0208 75.5128 41.3866 75.4909 41.7672C75.464 42.2338 75.3578 42.7222 75.329 43.2043C75.2674 44.2329 75.0456 45.2411 74.9189 46.2605C74.8401 46.8938 74.633 47.5419 74.486 48.1804C74.3089 48.9496 73.95 49.6645 73.8309 50.4374C73.7157 51.1853 73.158 51.7794 73.163 52.5547C72.5476 53.4477 72.261 54.5019 71.7462 55.4477C71.4088 56.0678 70.963 56.6457 70.7387 57.3047C70.5346 57.9045 70.0615 58.2728 69.7668 58.784C69.4561 59.3227 69.0507 59.8059 68.7142 60.331C68.2731 61.0192 67.6792 61.5847 67.2078 62.2421C66.9015 62.6692 66.3791 62.9238 66.2402 63.4755C65.2454 64.1504 64.4918 65.0919 63.6114 65.8928C63.037 66.4152 62.3566 66.7893 61.814 67.3337C61.5089 67.6397 61.193 67.977 60.8299 68.147C60.1879 68.4475 59.6636 68.9106 59.0544 69.2482C58.7166 69.4354 58.4274 69.7116 58.0872 69.8931C57.3674 70.2774 56.6211 70.6118 55.8989 70.9918C54.1467 71.9134 52.2928 72.5804 50.4127 73.1729C49.0123 73.6141 47.5838 73.9481 46.1305 74.1886C44.5475 74.4506 42.9598 74.5746 41.3588 74.6672C39.9515 74.7487 38.5572 74.6618 37.1665 74.572C35.5819 74.4697 34.0085 74.2104 32.451 73.8581C31.5311 73.65 30.6342 73.381 29.735 73.1083C27.3138 72.3742 25.01 71.3692 22.7853 70.1659C22.3979 69.9564 22.0805 69.6476 21.674 69.4807C21.2581 69.31 20.9489 68.9479 20.5409 68.7944C20.15 68.6473 19.972 68.1468 19.4833 68.2035C18.9301 67.4804 18.1238 67.0536 17.4374 66.4887C17.1132 66.2219 16.8475 65.8788 16.4385 65.6895C16.223 65.5897 16.0915 65.297 15.8916 65.1117C14.3647 63.6958 13.0097 62.1276 11.7496 60.4699C11.0777 59.5859 10.4812 58.6558 9.86708 57.7348C9.65605 57.4183 9.50662 57.0575 9.28625 56.7658C8.95801 56.3311 8.80079 55.8276 8.55416 55.3635C7.74787 53.8465 7.1411 52.2424 6.57815 50.6226C6.04066 49.0761 5.66392 47.4862 5.36994 45.8779C5.11173 44.4651 4.97998 43.0384 4.87355 41.6048C4.78655 40.4331 4.80679 39.2645 4.82773 38.0977C4.83779 37.5369 4.89177 36.962 4.93804 36.3959C4.96446 36.0727 4.92151 35.701 4.95692 35.3874C4.99306 35.0674 5.14419 34.726 5.15751 34.3882C5.1912 33.5336 5.46993 32.7269 5.6214 31.8969C5.70448 31.4416 5.61766 30.936 5.9254 30.5236C6.05283 30.3528 5.82771 30.2984 5.7704 30.1916C6.05834 29.9671 6.21269 29.676 6.2996 29.3414C6.41576 28.8941 6.52206 28.4435 6.66021 28.003C6.75542 27.6994 6.98169 27.4488 7.05076 27.1296C7.22525 26.3231 7.68171 25.6333 7.98423 24.8796C8.29449 24.1065 8.67798 23.3677 9.08423 22.6405C9.30597 22.2435 9.54324 21.8487 9.58442 21.3432C9.81743 21.3344 9.96945 21.1525 10.0589 20.9333C10.2841 20.3817 10.6751 19.9225 10.9977 19.4441C11.3886 18.8646 11.863 18.3195 12.2915 17.7537C13.0792 16.7133 14.0079 15.8027 14.8821 14.8413C15.6187 14.0311 16.4957 13.3803 17.2944 12.6413C18.1219 11.8756 19.0523 11.2455 19.9723 10.6015C21.2701 9.69329 22.6453 8.91858 24.0495 8.18772C25.7398 7.30793 27.5163 6.65313 29.3246 6.07389C31.1923 5.47567 33.1084 5.1101 35.0432 4.79672C37.3928 4.41617 39.7518 4.50903 42.1091 4.5262C42.6148 4.52988 43.1412 4.59564 43.6537 4.63067C44.6214 4.6968 45.5663 4.9114 46.5305 4.99626C46.8689 5.02603 47.2368 5.12252 47.5786 5.23668C47.7933 5.30839 47.988 5.33036 48.1241 5.04566C48.1541 5.32067 48.3199 5.39001 48.5256 5.43962C49.4934 5.67292 50.4403 5.98717 51.4039 6.22894C52.0318 6.38648 52.5841 6.71119 53.1911 6.88285C53.8265 7.06254 54.3588 7.47264 54.9867 7.62769C55.4844 7.7506 55.8607 8.07533 56.3117 8.26951C56.7743 8.46864 57.218 8.71614 57.656 8.96688C58.2459 9.3046 58.7955 9.7258 59.4115 10.0018C60.2173 10.363 60.7564 11.113 61.5939 11.4064C61.7509 11.8527 62.2888 11.8847 62.5181 12.2544C62.5508 12.3071 62.6075 12.3515 62.6627 12.3825C63.5813 12.8975 64.1906 13.7738 65.0243 14.3996C65.6394 14.8614 66.0568 15.5739 66.6178 16.1249C67.1773 16.6746 67.6229 17.3276 68.1224 17.925C68.4006 18.2577 68.7115 18.6269 68.9617 19.0194C69.4713 19.8188 70.0158 20.6064 70.5252 21.4057C70.9291 22.0394 71.2627 22.7343 71.6219 23.4044C72.1676 24.4224 72.6053 25.4904 73.0873 26.5357C73.4827 27.3933 73.7139 28.3289 73.9918 29.2378C74.5083 30.9273 74.8728 32.6492 75.1194 34.4006C75.2849 35.5761 75.4126 36.7514 75.4722 37.9547ZM23.4104 49.9467C23.4103 49.335 23.3984 48.723 23.4158 48.1118C23.4231 47.8546 23.3496 47.6564 23.1564 47.4991C22.7563 47.1735 22.6028 46.7316 22.5504 46.2391C22.4901 45.6735 22.4026 45.1094 22.3724 44.5422C22.3438 44.0058 22.0631 43.5383 22.0197 43.0034C21.9922 42.6634 21.8371 42.3319 21.7264 42.0009C21.2894 40.6943 21.0826 39.3636 21.302 37.9889C21.4501 37.0608 21.8134 36.295 22.8221 36.0328C22.9706 35.9942 23.0886 35.9253 23.0793 35.7439C23.037 34.923 23.2735 34.0835 22.9169 33.2836C22.8875 33.2175 22.8882 33.1624 22.9352 33.105C23.0858 32.9216 23.0345 32.6985 23.0083 32.5039C22.9064 31.7451 22.9397 30.9772 22.8502 30.2212C22.7796 29.6248 22.8391 29.0266 22.7664 28.4378C22.6284 27.321 22.729 26.2165 22.8437 25.1088C22.8645 24.9071 22.96 24.6488 22.7941 24.5113C22.421 24.2021 22.1577 23.8411 21.9882 23.3879C21.6269 22.4222 21.7231 21.4809 22.0807 20.5424C22.1451 20.3734 22.2499 20.3218 22.4148 20.3903C22.5109 20.4302 22.6055 20.4738 22.7012 20.5147C23.0948 20.683 23.5273 20.5539 23.8049 20.1858C24.0921 19.8048 24.0919 19.5936 23.7563 19.1909C22.8777 18.1366 22.7926 15.8696 24.0044 14.7848C24.3186 14.5036 24.4436 14.4969 24.6718 14.8471C24.908 15.2097 25.2261 15.4766 25.6288 15.6088C25.9401 15.711 26.2818 15.8847 26.5279 15.4344C27.0786 14.4264 27.9247 13.7057 28.8806 13.0973C29.5398 12.6777 30.2583 12.3226 30.9772 12.0994C31.657 11.8884 32.4027 11.7655 33.1343 11.6836C33.8444 11.6042 34.3668 11.0506 34.2338 10.4324C34.1439 10.0148 34.3335 9.92407 34.6254 9.82965C35.6078 9.51194 36.6262 9.38704 37.6482 9.35896C38.5138 9.33518 39.3789 9.44356 40.2372 9.58469C40.9401 9.70028 41.6643 9.87636 42.2772 10.1517C42.8905 10.4272 43.5714 10.6775 44.1117 11.1466C44.5614 11.537 45.051 11.8825 45.4347 12.3444C45.8405 12.833 46.2809 13.295 46.6047 13.9517C46.6479 13.4087 46.2459 13.0698 46.3397 12.6154C46.5196 12.5076 46.719 12.5468 46.9084 12.5589C47.5023 12.5967 48.0587 12.7781 48.5915 13.0363C48.8238 13.1488 49.1852 13.1317 49.3004 13.2689C49.656 13.6924 50.171 13.87 50.5654 14.2373C51.7082 15.3012 52.3975 16.5994 52.8559 18.0612C52.9688 18.4209 52.9658 18.8516 53.2955 19.1155C53.9583 19.646 54.5487 20.2456 55.0783 20.907C55.9072 21.9422 56.4616 23.1339 56.7749 24.3973C57.021 25.3896 57.1705 26.4169 57.2363 27.4543C57.3154 28.7036 57.3222 29.9504 57.2822 31.1969C57.2452 32.3482 57.1278 33.4968 57.065 34.6476C57.0527 34.8739 56.8961 35.0991 57.0422 35.3323C57.2765 35.3131 57.5192 35.3237 57.746 35.2688C58.4061 35.1091 59.001 35.2457 59.5422 35.6288C59.6908 35.7341 59.8557 35.7941 59.9784 35.9785C60.6939 37.054 60.7502 38.2847 60.7907 39.4946C60.8354 40.8308 60.6339 42.155 60.2024 43.4311C59.8025 44.6141 59.3902 45.7929 58.9858 46.9743C58.8295 47.4309 58.6417 47.8675 58.3553 48.2637C57.6885 49.1863 56.8487 49.7431 55.6597 49.6001C55.521 49.5834 55.3681 49.6434 55.3905 49.7474C55.4532 50.0389 55.2386 50.2277 55.1821 50.4716C54.8954 51.7085 54.8214 52.9652 54.7915 54.2281C54.7783 54.785 54.7728 55.3413 54.7388 55.8991C54.6933 56.6462 54.6565 57.4013 54.7752 58.1541C54.8215 58.4477 54.9176 58.7765 54.8496 59.0479C54.5383 60.2895 54.9966 61.6621 56.0608 62.3524C56.726 62.7838 57.4126 63.1623 58.1648 63.4673C58.8459 63.7434 59.5305 64.052 60.2132 64.3477C60.3932 64.4257 60.5193 64.4064 60.6729 64.2857C62.503 62.8474 64.0857 61.1637 65.572 59.3821C66.2095 58.6178 66.7631 57.793 67.3119 56.9669C67.9088 56.0685 68.4648 55.141 68.9447 54.1743C69.4867 53.0825 69.9425 51.954 70.3898 50.8179C70.7052 50.0167 70.9212 49.1906 71.2203 48.3893C71.3817 47.9568 71.4098 47.4823 71.53 47.0533C71.6785 46.5228 71.8328 45.9925 71.9193 45.4507C72.0713 44.4992 72.2403 43.5518 72.2788 42.5808C72.3041 41.9407 72.4508 41.3001 72.4682 40.6548C72.5259 38.5107 72.3607 36.3836 72.0135 34.2646C71.6136 31.8228 70.9104 29.4742 69.9886 27.1854C69.3578 25.6188 68.5409 24.147 67.6701 22.7048C67.3759 22.2176 67.0588 21.7428 66.7281 21.2795C66.2511 20.6113 65.7589 19.9601 65.2019 19.3467C64.8101 18.9152 64.4566 18.432 64.0698 17.9809C63.2037 16.9711 62.2034 16.105 61.2351 15.2042C60.294 14.3288 59.2222 13.6197 58.1686 12.8933C57.2184 12.238 56.2213 11.6518 55.1916 11.1257C54.4629 10.7534 53.7333 10.3846 52.9748 10.0724C52.8092 10.0042 52.65 10.1331 52.5252 10.0213C52.1018 9.64162 51.613 9.45506 51.0435 9.47472C50.945 9.47812 50.7898 9.50543 50.7733 9.38557C50.7389 9.13511 50.5206 9.14589 50.3923 9.13682C49.8481 9.09835 49.3957 8.77896 48.858 8.68087C48.429 8.60259 47.9727 8.42225 47.5287 8.32529C46.2599 8.04821 44.9753 7.85595 43.6843 7.69325C42.4716 7.54043 41.2553 7.52279 40.0405 7.46233C39.2771 7.42434 38.511 7.53137 37.745 7.55549C37.4039 7.56624 37.0407 7.54854 36.7055 7.65345C36.1671 7.82197 35.6007 7.72745 35.0462 7.94623C34.4938 8.16418 33.8427 8.14317 33.2323 8.20025C32.4587 8.27259 31.7574 8.61033 31.0063 8.77123C29.6532 9.06108 28.4062 9.67012 27.1243 10.1706C26.7999 10.2973 26.5085 10.5301 26.2155 10.676C25.8523 10.857 25.4693 11.0461 25.0873 11.1974C23.962 11.6433 23.0133 12.3714 22.0098 13.0071C21.2619 13.4808 20.5669 14.0362 19.8861 14.6149C19.4406 14.9937 18.9717 15.3651 18.5038 15.7274C18.2741 15.9053 18.1553 16.193 17.9388 16.3312C17.6366 16.5242 17.3891 16.7668 17.145 17.008C15.7686 18.368 14.5597 19.8686 13.4566 21.4578C13.0282 22.0751 12.6434 22.7184 12.27 23.3669C11.747 24.275 11.2573 25.1977 10.8321 26.1641C10.5749 26.7486 10.3241 27.3511 10.0585 27.9374C9.75953 28.5973 9.61639 29.3317 9.37518 30.0079C9.18866 30.5308 9.10405 31.0845 8.88 31.5994C8.5807 32.2873 8.56443 33.0587 8.39945 33.789C8.16882 34.8099 8.07392 35.8564 7.98 36.9023C7.85015 38.3483 7.79024 39.7898 7.9094 41.2382C7.94417 41.661 8.02074 42.0945 8.02145 42.4999C8.02284 43.2976 8.22563 44.0561 8.28609 44.8361C8.3126 45.1781 8.58686 45.4621 8.56731 45.7591C8.52438 46.4114 8.77177 46.9944 8.86896 47.6104C8.9497 48.122 9.22134 48.5757 9.31245 49.0886C9.44262 49.8215 9.79771 50.4836 10.0405 51.1811C10.5043 52.5133 11.1659 53.7615 11.8362 55.0001C12.2292 55.7263 12.6615 56.427 13.1413 57.1068C13.4252 57.509 13.6871 57.9619 13.9754 58.3666C15.5375 60.5598 17.4303 62.4511 19.4695 64.2006C19.8317 64.5113 20.198 64.7121 20.6562 64.3884C20.6965 64.3599 20.755 64.3583 20.8035 64.34C22.1355 63.8361 23.4415 63.2769 24.6313 62.4816C25.2103 62.0946 25.6354 61.6241 25.7159 60.8661C25.7749 60.3108 25.8005 59.7566 25.8463 59.2024C25.8857 58.7248 25.7924 58.3213 25.538 57.9189C24.5606 56.3727 24.0023 54.6762 23.701 52.8751C23.5423 51.9265 23.5449 50.9685 23.4104 49.9467ZM53.7304 29.5835C53.6579 29.3889 53.5984 29.1882 53.511 29.0006C52.9127 27.7163 52.382 26.4075 52.0413 25.0282C51.9874 24.8097 51.8027 24.5254 51.8216 24.4181C51.9128 23.9017 51.7244 23.4319 51.6983 22.9418C51.6831 22.6553 51.5416 22.4523 51.3635 22.2608C50.9303 21.7952 50.4296 21.4107 49.9029 21.0574C49.5844 20.8437 49.2258 20.7166 48.8842 20.5525C48.3641 20.3026 47.8814 19.9768 47.263 20.099C47.151 20.1211 47.0459 20.0894 46.9782 20.0075C46.8415 19.8421 46.6536 19.7982 46.4621 19.7633C45.7111 19.6265 44.9529 19.4942 44.1923 19.4952C41.9962 19.4978 39.8001 19.4384 37.6034 19.5524C35.8969 19.6409 34.1768 19.4299 32.4837 19.8317C31.7848 19.9976 31.1344 20.273 30.4967 20.5838C28.9611 21.332 27.7288 22.4329 26.8645 23.9046C26.4409 24.6259 26.1713 25.407 26.0316 26.2636C25.934 26.8619 25.7938 27.459 25.7198 28.0706C25.6482 28.6628 25.6059 29.2541 25.5656 29.8483C25.4826 31.0727 25.3575 32.2943 25.2698 33.5184C25.1772 34.8095 25.0532 36.1019 25.0425 37.3945C25.0293 39.0048 25.0051 40.6153 25.0864 42.2286C25.1563 43.6164 25.2661 45.0011 25.3622 46.3859C25.4189 47.204 25.5696 48.021 25.8181 48.8155C26.0978 49.7096 26.5903 50.4358 27.3635 50.9644C27.51 51.0645 27.6783 51.1896 27.8673 51.0985C27.9888 51.04 28.0169 50.8955 28.0183 50.7584C28.0247 50.1428 28.1767 49.5517 28.3424 48.9662C28.6592 47.8466 29.1671 46.8223 30.0478 46.0417C30.8517 45.3292 31.7978 44.8314 32.7916 44.4274C32.9425 44.366 33.1036 44.3169 33.2263 44.1634C33.0794 44.0312 32.9484 43.9083 32.8119 43.7915C32.1503 43.2255 31.9763 42.513 32.1941 41.6926C32.3835 40.9792 32.8305 40.4238 33.3289 39.9026C33.6639 39.5522 33.975 39.1766 34.0985 38.6989C34.4446 37.3611 34.8921 36.0477 34.824 34.6258C34.7728 33.5585 34.5663 33.1669 33.6345 32.9658C32.2306 32.6628 30.8037 32.5096 29.3729 32.4112C28.7898 32.3711 28.1979 32.4042 27.7106 32.8043C27.2158 33.2106 26.771 33.6653 26.4337 34.2146C26.3498 34.3512 26.2709 34.4802 26.0963 34.4535C26.0054 34.394 25.9902 34.319 25.9903 34.2383C25.991 32.9825 26.2566 31.8148 27.1505 30.8701C27.5223 30.4771 28.01 30.2538 28.5218 30.1327C28.8945 30.0444 29.2953 30.0826 29.6807 30.0387C30.8483 29.9058 32.0093 29.9326 33.1684 30.1293C34.0624 30.2811 34.9095 30.5434 35.4112 31.364C36.0162 32.3533 36.2358 33.4754 36.3481 34.6113C36.4546 35.6892 36.1562 36.7214 35.8821 37.7473C35.6076 38.7745 35.3019 39.7936 34.9977 40.8127C34.779 41.545 34.9361 42.1771 35.521 42.6583C36.1099 43.1428 36.909 43.5729 37.7762 42.8904C38.2758 42.4971 38.9043 42.4305 39.5119 42.4055C40.2177 42.3763 40.6219 42.8344 40.4898 43.4958C40.9015 43.2915 41.0819 42.9697 41.1388 42.5733C41.2016 42.1354 41.1096 41.7222 40.8921 41.3335C40.8339 41.2294 40.7152 41.1042 40.8294 40.9802C40.9538 40.8451 41.1069 40.9272 41.2198 41.0068C41.8571 41.4557 42.295 42.0394 42.286 42.8499C42.2781 43.5582 41.9006 44.0349 41.1311 44.2895C41.6758 44.4881 42.1387 44.6411 42.5894 44.8241C44.3008 45.5189 45.6282 46.6136 46.3173 48.3878C46.5428 48.9684 46.6851 49.5804 46.7916 50.1747C46.8747 50.6383 46.8865 51.1502 46.8995 51.6419C46.9055 51.8685 46.9866 51.9348 47.2146 51.8933C47.8233 51.7826 48.4015 51.5985 48.9863 51.3866C49.8196 51.0846 50.5447 50.6366 51.1644 50.0444C52.6855 48.5907 53.4118 46.7228 53.8016 44.6993C53.9999 43.67 54.0739 42.6253 54.2022 41.5872C54.3896 40.0701 54.4631 38.5462 54.571 37.0247C54.6279 36.2215 54.6053 35.4102 54.5752 34.6041C54.5463 33.828 54.4878 33.0509 54.3945 32.28C54.2852 31.3777 54.0574 30.498 53.7304 29.5835ZM33.5806 64.1807C31.1891 63.5157 29.1968 62.17 27.3697 60.4206C27.2495 61.1446 27.1629 61.7563 27.0427 62.3615C26.9516 62.8206 26.9551 63.2854 27.015 63.7337C27.2467 65.468 28.3063 66.6761 29.6417 67.6829C30.2866 68.1691 31.0003 68.5405 31.7381 68.8737C33.9627 69.8783 36.3027 70.3412 38.7294 70.4465C39.4803 70.4791 40.228 70.481 40.9777 70.4425C41.8188 70.3993 42.6591 70.336 43.4821 70.1566C44.1916 70.002 44.8946 69.8371 45.5927 69.6047C46.2446 69.3878 46.9238 69.2167 47.5645 68.9497C48.2124 68.6797 48.8327 68.35 49.4475 68.0087C50.0588 67.6694 50.5819 67.2109 51.1246 66.7859C51.8257 66.237 52.382 65.5344 52.8562 64.7785C53.4871 63.7727 53.7467 62.6877 53.4655 61.5113C53.3326 60.9557 53.2541 60.3849 53.2666 59.826C53.2909 58.7375 53.1317 57.6517 53.2431 56.5635C53.2612 56.3872 53.2248 56.2053 53.2102 55.972C52.7515 56.5794 52.4456 57.2091 51.973 57.7274C51.4586 58.2915 51.0384 58.9545 50.472 59.4556C49.1257 60.6464 47.7168 61.7578 46.1145 62.6124C44.7915 63.318 43.4097 63.8506 41.9742 64.2525C41.0301 64.5167 40.0648 64.661 39.0825 64.7418C38.3902 64.7987 37.692 64.8595 37.0102 64.8126C35.8679 64.7339 34.7248 64.5786 33.5806 64.1807ZM32.3323 49.8774C32.1531 49.8925 31.9571 49.9612 31.7981 49.9115C31.4641 49.8073 31.3298 49.9813 31.1781 50.221C30.7724 50.8619 30.6113 51.5768 30.4787 52.3091C30.3356 53.1 30.4605 53.8283 30.9016 54.4985C31.2032 54.9567 31.9446 55.265 32.427 55.1831C33.305 55.034 34.1052 53.9909 33.4842 52.9859C33.1083 52.3775 33.1517 51.6993 33.5249 51.0592C33.6799 50.7932 33.8872 50.7104 34.1741 50.7656C34.7101 50.8686 35.251 50.8979 35.7968 50.9163C36.9333 50.9547 38.0665 50.9531 39.1981 50.8313C39.8105 50.7653 39.9673 50.8859 40.1674 51.4899C40.4003 52.1929 40.1198 52.7636 39.7035 53.2806C39.281 53.8052 39.2772 54.3629 39.7375 54.8568C40.1492 55.2985 40.6568 55.478 41.2503 55.5595C41.9319 55.6532 43.282 55.2898 43.6565 54.4602C43.7645 54.2208 43.7928 53.969 43.8787 53.7323C44.315 52.5304 44.1725 51.3921 43.5296 50.3068C43.3937 50.0774 43.1834 49.9349 42.8919 49.9302C42.5689 49.9251 42.2465 49.8775 41.9238 49.8772C38.7496 49.8738 35.5753 49.8765 32.3323 49.8774ZM57.0419 47.1933C57.1807 46.9175 57.3605 46.6542 57.4504 46.3633C57.6851 45.6033 58.0218 44.8844 58.2962 44.1411C58.781 42.828 59.1696 41.4889 59.1807 40.0757C59.1859 39.4108 59.2182 38.7518 58.921 38.0948C58.8019 37.8317 58.7647 37.487 58.5848 37.2267C58.41 36.9738 58.1635 36.7807 57.8296 36.8462C57.2766 36.9548 56.8113 37.2522 56.4537 37.6704C56.2272 37.9355 55.8843 38.1557 55.8892 38.5714C55.8971 39.2342 55.9009 39.8973 55.9096 40.5599C55.9259 41.7909 55.8108 43.0198 55.7944 44.2523C55.7794 45.3748 55.6445 46.4953 55.5822 47.6177C55.5634 47.9552 55.7569 48.0721 56.0864 47.9996C56.5286 47.9024 56.7812 47.5835 57.0419 47.1933ZM23.4882 40.1172C23.4879 39.4813 23.4889 38.8453 23.4862 38.2094C23.4856 38.0806 23.4939 37.933 23.3116 37.9142C23.1613 37.8987 23.0494 37.9831 23.0183 38.1187C22.9334 38.4886 22.8567 38.8529 22.8934 39.2474C22.9387 39.7339 23.0224 40.2151 23.0699 40.6951C23.1194 41.1947 23.2406 41.6548 23.4047 42.123C23.5249 41.4814 23.4723 40.8368 23.4882 40.1172ZM37.7651 48.4859C38.352 48.4449 38.9389 48.4039 39.5259 48.3628C39.5252 48.3128 39.5245 48.2627 39.5238 48.2126C39.0534 48.0993 38.5576 47.9521 38.0911 48.0351C37.3367 48.1694 36.5959 48.1776 35.8387 48.1322C35.3659 48.1039 34.8455 47.8496 34.3945 48.3435C35.5142 48.3892 36.6 48.4999 37.7651 48.4859Z" fill="#223061"/>
<path d="M49.5555 31.386C50.2398 32.2208 50.8577 33.0573 50.8827 34.1913C50.617 34.2503 50.4906 34.0986 50.3449 33.9751C49.5321 33.2867 48.7239 32.597 47.6446 32.3385C46.8575 32.15 46.0705 32.2745 45.2914 32.3283C44.5379 32.3804 43.791 32.555 43.0469 32.7038C42.6177 32.7896 42.1972 32.9229 41.7771 33.0494C41.4331 33.153 41.0871 33.1385 40.7574 33.0397C40.049 32.8274 39.9317 32.1276 40.1578 31.5439C40.4652 30.7505 41.1037 30.3079 41.9473 30.1142C43.004 29.8716 44.0711 29.7786 45.1451 29.8254C46.2884 29.8752 47.4447 29.9081 48.4804 30.5139C48.8772 30.746 49.2154 31.0433 49.5555 31.386Z" fill="#223061"/>
<path d="M44.8805 36.5751C43.9609 36.2698 43.633 35.7952 43.6752 34.8376C43.3131 34.8927 43.1437 35.1852 42.928 35.4087C42.4385 35.9158 42.3346 35.839 41.7159 35.667C41.4938 35.6052 41.4313 35.4614 41.5102 35.2159C41.8083 34.288 43.1329 33.1694 44.2932 33.2367C45.1355 33.2855 45.9665 33.3145 46.7824 33.5627C47.5029 33.7819 48.1122 34.155 48.5761 34.7406C48.9141 35.1674 49.214 35.6247 49.5228 36.074C49.5931 36.1763 49.6805 36.3007 49.5755 36.4302C49.491 36.5344 49.3663 36.5204 49.2496 36.4971C48.6308 36.3736 48.0949 36.0967 47.6306 35.6637C47.3962 35.4451 47.1156 35.2798 46.8217 35.1397C46.2443 36.5115 46.08 36.6342 44.8805 36.5751Z" fill="#223061"/>
<path d="M33.6544 35.7466C33.3977 35.5276 33.167 35.3221 32.8795 35.0659C32.651 35.7371 32.4111 36.3536 31.668 36.5435C31.3297 36.6299 30.9858 36.6365 30.6679 36.5621C29.9437 36.3927 29.6395 35.8345 29.536 35.1273C29.1547 35.1895 28.9404 35.4605 28.7092 35.6953C28.3696 36.0403 27.9969 36.339 27.5781 36.5804C27.4658 36.6451 27.3405 36.7284 27.2196 36.6257C27.1204 36.5415 27.1419 36.401 27.1759 36.295C27.5706 35.0631 28.2828 34.0826 29.5064 33.5785C30.6169 33.121 31.7825 33.1586 32.9239 33.4344C33.6204 33.6027 34.1099 34.1217 34.4598 34.7336C34.6062 34.9896 34.6538 35.3125 34.4522 35.5844C34.2538 35.8519 33.9765 35.8708 33.6544 35.7466Z" fill="#223061"/>
<path d="M57.8408 43.366C57.7207 43.6 57.6227 43.8148 57.4908 44.0063C57.2036 44.4234 56.707 44.5378 56.2493 44.321C55.9824 44.1946 56.063 44.0159 56.1693 43.8397C56.3981 43.4609 56.5971 43.0716 56.7222 42.643C56.8064 42.3547 56.7602 42.101 56.5908 41.8704C55.8566 40.8714 56.2274 39.4116 57.1096 38.7484C57.5802 38.3948 58.0716 38.068 58.7206 38.2031C58.7218 38.2046 58.7372 38.2142 58.7375 38.2243C58.7479 38.5217 59.0247 38.7821 58.9135 39.0792C58.7963 39.3923 58.4171 39.3694 58.1759 39.5342C57.5931 39.9323 57.4332 40.5477 57.7819 41.1625C58.1883 41.8788 58.1343 42.6023 57.8408 43.366Z" fill="##933181"/>
</svg>
